<?xml version="1.0" encoding="UTF-8"?>
<svg id="Layer_1" data-name="Layer 1" xmlns="http://www.w3.org/2000/svg" viewBox="0 0 145.29 201.46">
  <defs>
    <style>
      .cls-1 {
        fill: #c93534;
      }
    </style>
  </defs>
  <g id="Group_27" data-name="Group 27">
    <g id="Group_25" data-name="Group 25">
      <path id="Path_86" data-name="Path 86" class="cls-1" d="M141.82,79.8c-.4,.2-.86,.27-1.3,.19-3.03-.73-6.22-.43-9.06,.87-1.18,.56-2.49,.76-3.79,.58-.47-.1-1.04-.07-1.25-.62s.42-.74,.6-1.13,.84-.55,.55-1.04c-.3-.4-.8-.62-1.3-.58-1.57,.08-3.11,.46-4.54,1.12-1.07,.52-2.3,.63-3.45,.33,.63-.76,.17-1.1-.54-1.27-.39-.1-.79-.15-1.2-.14-3.76,.33-7.46,1.13-11.01,2.39-.61,.18-1.14,.54-1.53,1.04-.93,1.14-2.13,2.03-3.49,2.59-1.28,.57-2.37,1.48-3.17,2.63-.22,.38-.56,.36-.92,.41-2.53,.35-5.07,.63-7.57,1.09-2.41,.12-4.79,.61-7.06,1.44-1,.51-2.06,.9-3.06,1.37-1.37,.63-2.76,1.23-4.16,1.81-.4,.17-.8,.35-1.19,.51-2.26,.93-4.44,2.04-6.51,3.34-2.51,1.63-5.16,3.03-7.68,4.66-1.03,.72-2.27,1.09-3.53,1.07-1.98-.5-4.08,.07-5.55,1.49-2.38,2.49-5.57,2.8-8.46,4.18-.03-.7-.12-1.4-.25-2.09-.41-1.18-.05-2.5,.9-3.31,.2-.17,.35-.41,.41-.67,.36-2.46,3.06-3.74,3.09-6.35,.04-.13,.12-.25,.23-.33,1.49-1.41,2.54-3.22,3-5.22,1.1-4.26,2.72-8.32,4.1-12.49,.71-2.15,1.78-3.71,4.2-3.9,.3-.03,.56-.29,.85-.38,1.2-.36,1.53-1.71,2.62-2.21,2.61-1.49,5.44-2.54,8.39-3.1,1.44-.13,2.83-.59,4.06-1.34,.37-.23,1.02-.38,.84-1.05s.31-.98,.69-1.34c.86-.71,1.82-1.3,2.84-1.76,1.43-.67,2.67-1.67,3.63-2.92,1.01-1.37,2.35-2.47,3.89-3.19,3.61-1.7,7.31-3.18,11.1-4.44,.54-.19,1.31-.22,1.64-1.26-2.53,.87-5.12,1.55-7.75,2.04-1.79,.43-3.61,.71-5.45,.83-.7,.02-1.41,.02-.92-1.13,.46-1.05,.04-1.5-1.13-1.35-.68,.06-1.32,.31-1.86,.72-.69,.69-1.8,.69-2.49,0-.11-.11-.21-.24-.29-.38-.23-.39-.72-.55-1.14-.36-1.88,.58-3.8,1.1-5.69,1.63-.38,.11-.84,.13-.89,.67-.09,.93-.76,1.37-1.44,1.82-.63,.35-1.16,.87-1.51,1.5-.25,.65-.99,.97-1.63,.71-.01,0-.02,0-.04-.02-1.31-.31-2.65-.46-3.99-.45-1.09,0-1.26-.51-1.27-1.38-.08-2.36,.43-4.7,1.47-6.82,1.21-2.17,2.15-4.49,2.77-6.9,.17-.83,.53-1.61,1.07-2.26,1.09-1.09,1.77-2.54,1.91-4.08,.05-2.31,.64-4.58,1.72-6.63,.38-.97,1.23-1.68,2.25-1.88,.91-.19,1.76-.67,2.66-.92,1.53-.45,2.16-1.95,3.31-2.84,2.28-1.61,4.89-2.7,7.64-3.16,1.93-.42,3.86-.84,5.77-1.32,.98-.25,2.52-.83,2.55-1.4,.07-1.78,1.33-1.91,2.39-2.43,2.18-1.07,4.68-1.63,5.97-4.05,.16-.31,.48-.37,.74,0h0c.39,.02,.76-.16,1-.46,1.69-1.48,3.72-2.52,5.91-3.01,2.8-.7,5.57-1.43,8.34-2.17,.97-.19,1.84-.75,2.42-1.55-4.41,.71-8.86,.78-13.17,1.86-.42,.11-.85,.44-1.27-.2-.33-.41-.27-1.01,.14-1.35,.03-.02,.06-.04,.09-.06,.86-.84,.21-1.13-.47-1.36-.58-.12-1.18-.07-1.72,.15-1.03,.5-2.17,.76-3.31,.76-.22-.04-.65,.22-.56-.36,.18-1.15-.62-1.27-1.41-1.27-2.51,.1-5,.55-7.39,1.35-.26,.07-.49,.22-.64,.44-.78,1.5-2.32,2.18-3.44,3.31-.78,.95-2.02,1.39-3.22,1.15-3.74-.81-7.64-.52-11.21,.85-.17,.08-.35,.11-.53,.08-1.22-.23-2.46,.32-3.09,1.39-.31,.47-.91,.66-1.43,.44-.57-.22-.53-.81-.49-1.3,.06-1.03,.18-2.07,.28-3.1,.03-.3,.14-.61-.38-.67-1.26-.09-3.16,1.54-2.93,2.71,.19,1.02-.23,1.08-.88,.75-.8-.42-1.26,0-1.73,.51-.55,.72-.97,1.53-1.23,2.4-.28,.61,.09,1.67-.81,1.81-.84,.13-.95-.9-1.39-1.4-.54-.61-2.1-.64-2.18,.05-.33,1.56-1.21,2.95-2.47,3.92-2.74,2.82-6.49,4.45-10.43,4.51-1.17,0-2.32,.26-3.37,.76-2.64,1.52-5.08,3.36-7.27,5.48-.42,.46-.92,.84-1.47,1.13-2.57,.94-4.66,2.84-7.29,3.63-.42,.12-.73,.49-.76,.93,2.65-.82,5.44-1.1,8.2-.8-.51,.55-.89,.97-1.29,1.39s-.81,.82-1.26,1.27c.45,.26,1.02,.23,1.44-.07,.95-.7,1.41-.32,1.56,.76,.03,.32,.18,.61,.22,.93,.21,1.78,1.2,2.61,3.21,2.89,1.07-.03,2.13,.02,3.19,.15,2.73,.84,5.64,.89,8.39,.15,.09,5.81-2.88,10.39-5.5,15.14,1.21-.63,1.71-1.93,2.88-2.8-.04,2.35-.49,4.68-1.32,6.88-.13,.39-.51,.47-.86,.58-2.94,1.09-5.95,1.98-9.02,2.66-1.82,.48-3.74,.46-5.56-.06-.35-.09-.71-.07-1.04,.07-.33,.08-.73,.06-.74,.59,0,.61,.47,.46,.75,.51,1.57,.16,3.09,.63,4.47,1.39,.41,.25,1.08,.39,.88,1.17-.11,.59-.59,1.03-1.19,1.09-.34,.07-.95-.02-.91,.54,.03,.46,.6,.55,.97,.56,.92,.03,1.03,.56,.97,1.3-.03,.45,0,.9-.04,1.35-.46,1.75,.43,3.57,2.09,4.29,.53,.35,1.03,.73,1.51,1.14,1.14,.63,1.62,2.03,1.1,3.22-.84,2.1-1.22,4.36-1.12,6.63,.22,.83,.23,1.71,.05,2.55-1.08,2.84-1.61,5.83-2.61,8.66-1.63,4.6-3.35,9.16-4.59,13.9-.07,.49-.31,.94-.68,1.27-5.03,3.88-10.53,7.12-16.35,9.65-1.77,.72-3.59,1.3-5.76,2.08,3.39,.24,6.8,.13,10.17-.34-1.02,1.67-3.2,1.73-4.41,3.48,1.12-.3,1.99-.45,2.8-.75,1.63-.6,2.02-.37,2.11,1.42,.13,2.43,.78,3.09,3.2,3.33,2.28,.16,4.56,.11,6.83-.14,.53-.05,1.04-.14,1.04,.61,.18,1.89,.08,3.79-.29,5.65-1.39,4.82-2.64,9.68-3.67,14.58-.1,.49-.43,1,0,1.49,.64-.25,.6-.84,.71-1.36,.15-1.49,.53-2.94,1.15-4.3,1.85-2.73,3.04-5.85,3.49-9.12,.11-1.04,.4-2.05,.85-2.99,.21-.55,.57-1.03,1.04-1.38,.44-.3,.99-.62,1.14,.34,.08,.6,.43,.87,.87,.34,.64-.57,1.11-1.3,1.39-2.11,.28-1.96,1.63-2.58,3.14-3.09,.81-.28,1.65-.45,2.48-.67,.38-.1,.78-.15,.97-.6,.44-.86,1.29-1.43,2.25-1.49,1.73-.31,3.37-1.01,4.79-2.04,1.25-.85,2.56-1.61,3.91-2.29,4.98-2.99,10.11-5.73,15.36-8.21,.99-.43,1.97-.9,2.96-1.36-.11,2.32-.56,4.61-1.32,6.81-.16,.38-.23,.79-.2,1.21,0,.63-.11,1.25-.33,1.84-.75,2.31-1.17,4.71-1.72,7.06-.78,3.29-1.12,6.68-1.96,9.97-1.36,5.23-2.63,10.49-3.74,15.8-.45,1.67-.59,3.4-.4,5.12,.22,1.96,.11,3.94-.31,5.86-.69,3.45-1.19,6.94-1.5,10.45-.01,1.61-.21,3.22-.58,4.79-.07,.17-.03,.36,.09,.49,.31,.06,.37-.36,.69-.25-.57,3.77-.7,7.6-.41,11.4-.18-.06-.18-.21-.22-.34s-.07-.35-.41-.23c.68,2.77,.65,5.65-.06,8.41,.94,0,1.53-.23,1.49-1.27,.03-.46,.14-.92,.31-1.35,.12-.39,.28-.92,.7-.93,.47,0,.48,.57,.63,.94,0,.03,.06,.05,.17,.13,.88-2.52,1.54-5.11,1.95-7.75,.37,.38,.69,.53,.83-.06,1.02-4.16,3.18-8.12,2.07-12.67-.21-1.13-.3-2.29-.25-3.44-.17-.69-.14-1.41,.07-2.09,.86-1.66,1.04-3.54,1.74-5.25,.13-.33,.04-.8,.25-1.02,.8-1.02,1.28-2.25,1.37-3.54,.67-4.19,1.66-8.3,2.66-12.41,.56-2.06,.86-4.18,.9-6.31-.04-1.08,.24-2.14,.81-3.06,.54-.97,1-1.98,1.36-3.03,.76-1.42,1.14-3.01,1.1-4.63,0-.22,.04-.43,.09-.64,.68-2.69,1.51-5.35,2.5-7.94,.17-.71,.55-1.44,.75-2.19,.32-1.31,.89-2.54,1.68-3.62,.17-.25,.3-.51,.4-.8,1.06-2.8,1.36-5.82,.88-8.77v-.01c-.08-.15-.37,.22-.37-.12,0-.1,.14-.3,.19-.3,.23,.05,.18,.25,.17,.42h0c.1-.61,.23-1.22,.36-1.83,1.15-.79,2.24-1.66,3.25-2.62,.34-.34,.69-.66,1.04-.95,.8-.72,1.72-1.31,2.71-1.73,.25-.1,.49-.19,.73-.3,.18-.15,.37-.31,.54-.46,.22-.2,.48-.36,.76-.45l2.88-.83c2.18-.63,4.35-1.27,6.53-1.91,1.51-.33,2.99-.77,4.43-1.32,.11-.05,.42-.02,.31-.21-.4-.75,.25-.83,.61-1.08,.18-.12,.36-.24,.55-.34,0,0,.01,0,.02,0,.56-.31,1.15-.55,1.77-.71,.34-.09,.68-.19,1-.31,1.39-.39,2.67-1.1,3.74-2.07,.02,.08,.05,.16,.08,.23,.12-.07,.24-.14,.36-.2,.03-.02,.06-.03,.09-.05l.19,.09c1.56-1.24,3.38-2.1,5.32-2.53,2.49-.41,4.96-.96,7.39-1.64,.64-.19,1.26-.47,1.83-.81-.23-.26-.61-.33-.92-.17-1.41,.4-2.87,.58-4.33,.54-1.33,.04-2.65,.25-3.93,.62,.96-.57,1.83-1.28,2.59-2.1,.22-.25,.68-.41,.73,.25l.34,.18c.51-.27,.99-.59,1.44-.94,1.34-1.12,2.92-1.91,4.63-2.29,4.8-1.35,9.63-2.55,14.53-3.51,.88-.29,1.72-.72,2.48-1.26-1.18,.14-2.34,.38-3.47,.73ZM20.77,117.26c.27-.35,.73-.48,1.14-.32-.29,.36-.63,.37-1.13,.33h0Z"/>
      <path id="Path_87" data-name="Path 87" class="cls-1" d="M21.91,116.95c-.3,.35-.63,.36-1.14,.32,.27-.35,.73-.48,1.14-.32Z"/>
      <path id="Path_88" data-name="Path 88" class="cls-1" d="M93.5,100.59c-1.39,.58-2.77,1.17-4.18,1.74,.18-.15,.37-.31,.54-.46,.22-.2,.48-.36,.76-.45l2.87-.83Z"/>
      <path id="Path_89" data-name="Path 89" class="cls-1" d="M102.57,10.92h0s-.03,0-.04,0h.04Z"/>
      <path id="Path_90" data-name="Path 90" class="cls-1" d="M108.73,94.71h0c-.92,.33-1.85,.68-2.77,1,.56-.31,1.15-.55,1.77-.71,.34-.08,.68-.19,1-.3Z"/>
      <path id="Path_91" data-name="Path 91" class="cls-1" d="M122.2,87.07c-.25,.18-.33,.07-.34-.18l.34,.18Z"/>
      <path id="Path_92" data-name="Path 92" class="cls-1" d="M56.44,7.58c-.39-1.19,.17-1.78,1.25-2.05,1.14-.16,2.23,.55,2.52,1.67,.25,.79-.37,2.51-.95,2.68-1.16,.33-2.36-.64-2.82-2.29Z"/>
      <path id="Path_93" data-name="Path 93" class="cls-1" d="M24.43,70.22c.82,0,1.83-.23,2.27,.94,.2,.55-1.16,2.17-1.9,2.35-.55,.22-1.17-.04-1.39-.59-.03-.07-.05-.14-.06-.21-.24-.85,.37-2.32,1.08-2.5Z"/>
      <path id="Path_94" data-name="Path 94" class="cls-1" d="M27.45,39.51c.02,1.37-.86,2.6-2.17,3.02-.82,.03-1.03-.71-1.12-1.27-.18-1.16,1.58-2.62,2.71-2.38,.32,.04,.56,.31,.58,.63Z"/>
      <path id="Path_95" data-name="Path 95" class="cls-1" d="M7.59,130.95c.58,0,1.47-.64,1.74,.6,.21,.93-1.1,2.41-2.24,2.67s-.81-.76-.95-1.21c-.36-1.09,.15-1.77,1.46-2.07Z"/>
      <path id="Path_96" data-name="Path 96" class="cls-1" d="M65.46,.07c.9-.31,.98,.45,1.17,.84,.45,.94-.54,.92-.96,1.26-.37,.3-.58,.16-.73-.32-.32-.64-.09-1.42,.53-1.78Z"/>
      <path id="Path_97" data-name="Path 97" class="cls-1" d="M18,37.01c-.21-.4-.06-.9,.34-1.11,.1-.05,.2-.08,.31-.09,.54-.14,.71,.15,.76,.61,.08,.59,0,1.04-.68,1.22-.59,.15-.66-.21-.73-.63Z"/>
      <path id="Path_98" data-name="Path 98" class="cls-1" d="M69.96,3.77c.15,.67-.02,1.06-.61,1.2-.45,.1-.82,.05-.84-.51s-.05-1.15,.59-1.33c.54-.16,.75,.3,.86,.65Z"/>
      <path id="Path_99" data-name="Path 99" class="cls-1" d="M20.16,63.71c.36-.15,.78,.02,.93,.39,.02,.05,.03,.1,.04,.15,.22,.39,.08,.88-.31,1.09-.06,.03-.12,.06-.19,.08-.35,.13-.78,.14-.81-.35s-.16-1.06,.33-1.36Z"/>
      <path id="Path_100" data-name="Path 100" class="cls-1" d="M1.08,128.42c-.39,.13-.72,.11-.6-.28,.14-.47-.46-1.25,.54-1.38,.38-.05,.74-.12,.85,.37,.15,.73-.36,1.03-.79,1.29Z"/>
      <path id="Path_101" data-name="Path 101" class="cls-1" d="M102.58,10.93l-.02,.02-.03-.03s.03,0,.04,0h.01Z"/>
      <path id="Path_102" data-name="Path 102" class="cls-1" d="M102.43,11.86c-.08,.04-.32,0-.33-.06-.16-.44,.25-.58,.45-.85,.36,.35,.35,.67-.12,.91Z"/>
      <path id="Path_103" data-name="Path 103" class="cls-1" d="M122.2,87.07c-.25,.45-.72,.44-1.19,.44,.29-.2,.56-.42,.85-.62l.34,.18Z"/>
      <path id="Path_104" data-name="Path 104" class="cls-1" d="M21.91,116.95c-.3,.35-.63,.36-1.14,.32,.27-.35,.73-.48,1.14-.32Z"/>
    </g>
    <g id="Group_26" data-name="Group 26">
      <path id="Path_106" data-name="Path 106" class="cls-1" d="M81.22,109.76c-.08-.15-.37,.22-.37-.12,0-.1,.14-.3,.19-.3,.24,.05,.19,.24,.18,.42Z"/>
      <path id="Path_107" data-name="Path 107" class="cls-1" d="M89.32,102.33c-1.03,.86-2.19,1.55-3.44,2.04,.8-.72,1.72-1.31,2.71-1.73,.25-.11,.49-.21,.73-.31Z"/>
      <path id="Path_108" data-name="Path 108" class="cls-1" d="M113.19,92.71s-.04,.02-.05,.04c-.07,.04-.13,0-.19-.04h0l-.03-.03s.06-.03,.09-.05l.18,.08Z"/>
      <path id="Path_109" data-name="Path 109" class="cls-1" d="M74.56,92.87c-.4,.17-.8,.35-1.19,.51,.22-.26,.52-.44,.85-.51,.11-.03,.23-.03,.34,0Z"/>
      <path id="Path_110" data-name="Path 110" class="cls-1" d="M77.52,88.46c.05,.39-.19,.75-.57,.87-.25,.1-.34-.04-.38-.25-.12-.35,.05-.73,.39-.87,.23-.06,.46,.05,.56,.26Z"/>
      <path id="Path_111" data-name="Path 111" class="cls-1" d="M113,92.62s-.04,.06-.05,.09c-.09,.14-.19,.25-.4,.16,.12-.07,.24-.14,.36-.2,.02-.03,.05-.03,.09-.05Z"/>
      <path id="Path_112" data-name="Path 112" class="cls-1" d="M113.19,92.71s-.04,.02-.05,.04c-.16,.16-.29,.53-.59,.12,.12-.07,.24-.14,.36-.2,.03-.02,.06-.03,.09-.05l.19,.09Z"/>
      <path id="Path_114" data-name="Path 114" class="cls-1" d="M81.22,109.76c-.08-.15-.37,.22-.37-.12,0-.1,.14-.3,.19-.3,.24,.05,.19,.24,.18,.42Z"/>
    </g>
  </g>
</svg>